<svg width="512" height="512" viewBox="0 0 512 512" fill="none" xmlns="http://www.w3.org/2000/svg">
<path d="M212.915 182.05C220.303 182.05 227.524 182.763 234.514 184.123C202.348 191.938 178.465 220.93 178.465 255.5C178.465 296.065 211.35 328.95 251.915 328.95C286.485 328.95 315.476 305.067 323.29 272.901C324.65 279.891 325.365 287.112 325.365 294.5C325.365 356.604 275.02 406.95 212.915 406.95C150.811 406.95 100.465 356.604 100.465 294.5C100.465 232.396 150.811 182.05 212.915 182.05Z" fill="#F4D35E"/>
<path d="M380.223 310.881L369.039 322.066L380.99 334.016L392.173 322.831L408.463 339.121C378.573 394.962 319.681 432.95 251.915 432.95C244.906 432.95 237.992 432.542 231.195 431.751C299.018 422.805 351.365 364.767 351.365 294.5C351.365 290.086 351.157 285.72 350.753 281.411L380.223 310.881ZM454.25 310.842L445.058 320.034L435.865 310.842L445.058 301.65L454.25 310.842ZM418.796 300.915L401.33 318.381L383.865 300.915L401.33 283.45L418.796 300.915ZM460.435 278.185L453.999 284.619L447.565 278.185L453.999 271.75L460.435 278.185ZM436.365 269.4L424.415 281.35L412.465 269.4L424.415 257.45L436.365 269.4ZM392.481 265.657L377.773 280.365L363.065 265.657L377.773 250.95L392.481 265.657ZM251.915 78.05C301.247 78.0501 345.874 98.1827 378.036 130.677L362.413 146.3L345.139 129.026L327.673 146.491L344.948 163.766L311.459 197.254C286.355 171.817 251.477 156.05 212.915 156.05C142.649 156.05 84.61 208.396 75.6633 276.219C74.873 269.422 74.4651 262.509 74.4651 255.5C74.4651 157.497 153.912 78.05 251.915 78.05ZM378.181 182.458L363.473 197.165L348.765 182.458L363.473 167.75L378.181 182.458ZM426.596 173.516L409.131 190.981L391.665 173.516L409.131 156.05L426.596 173.516ZM459.449 167.842L450.257 177.034L441.065 167.842L450.257 158.65L459.449 167.842ZM454.566 136.8L442.615 148.75L430.665 136.8L442.615 124.85L454.566 136.8ZM412.965 129L401.015 140.95L389.065 129L401.015 117.05L412.965 129ZM425.334 97.4846L418.9 103.919L412.465 97.4846L418.9 91.05L425.334 97.4846Z" fill="url(#paint0_linear_90_2)"/>
<defs>
<linearGradient id="paint0_linear_90_2" x1="460" y1="78" x2="74" y2="433" gradientUnits="userSpaceOnUse">
<stop offset="0.3" stop-color="#F4F2F0"/>
<stop offset="0.8" stop-color="#22201E"/>
</linearGradient>
</defs>
</svg>
